<svg xmlns="http://www.w3.org/2000/svg" width="720" height="480" viewBox="0 0 720 480"><rect width="100%" height="100%" fill="#DDD"/><path fill="#999" d="M173.675 221.115c-.59.71-1.1 1.08-1.9 1.08-1.17 0-1.7-.87-2.23-3.37l-1.05-4.85c-.83-3.9-3.33-5.71-9.02-6.19h-.03c8.24-.94 10.56-5.28 10.56-9.09 0-5.16-4.27-8.17-13.01-8.17-1.19 0-4.32.09-7.39.09-2.64 0-5.55-.04-7.14-.14v.94c2.96.14 3.51.62 3.51 4.04v23.32c0 3.42-.53 3.9-3.51 4.04v.94c1.59-.09 4.41-.14 7.41-.14 2.62 0 5.42.05 7.12.14v-.94c-2.99-.14-3.54-.62-3.54-4.04v-10.81h3.06c2.93 0 3.69 2.75 4.38 6.68l.83 4.68c.71 3.93 2.98 5.1 6.35 5.1 2.76 0 4.57-.81 6.25-2.74Zm-17.3-29.7c4.27 0 5.83 2.87 5.83 7.81 0 4.31-1.17 7.8-6.73 7.8h-2.02v-11.57c0-3.23.51-4.04 2.92-4.04Zm31.99 29.13c-2.98 0-6.13-2.55-6.13-9.09 0-.76.03-1.54.09-2.23h13.15c0-7.36-3.35-10.44-8.83-10.44-6.68 0-11.5 4.34-11.5 13.06 0 8.58 4.5 12.58 10.83 12.58 5.21 0 8.29-3.79 9.41-7.33l-.85-.32c-1.9 3.12-4.29 3.77-6.17 3.77Zm-2-20.75c2.3 0 3.29 3.95 3.19 8.54h-7.36c.39-6.08 2.06-8.54 4.17-8.54Zm21.14-1.01c-4.27 0-8.08 2.3-8.08 6.47 0 3.79 2.82 5.92 5.9 8.33 2.71 2.11 4.75 3.65 4.75 6.41 0 2.41-1.68 3.35-3.3 3.35-3.95 0-5.77-3.56-6.34-8.65h-1.01c0 4.75-.04 7.36-.18 9.38h.98c.23-1.01.62-1.67 1.15-1.67.07 0 .14.02.21.04.66.21 1.33.55 2.18.99 1.05.57 2.52.99 4.41.99 4.84 0 8.9-2.69 8.9-6.98 0-3.72-2.48-5.74-5.62-8.06-2.89-2.15-5.79-3.71-5.79-6.54 0-1.92 1.38-3.03 3.19-3.03 4.02 0 5.56 3.81 6.04 7.28h.99c0-4.18.04-6.47.2-8.26h-1.01c-.16 1.17-.55 1.72-1.1 1.72-.25 0-.53-.12-.85-.32-.92-.6-2.98-1.45-5.62-1.45Zm24.56 0c-6.75 0-11.5 3.54-11.5 12.83 0 9.32 4.75 12.81 11.5 12.81 6.77 0 11.52-3.49 11.52-12.81 0-9.29-4.75-12.83-11.52-12.83Zm0 .94c2.57 0 4.42 3.49 4.42 11.89 0 8.42-1.85 11.86-4.42 11.86-2.55 0-4.41-3.44-4.41-11.86 0-8.4 1.86-11.89 4.41-11.89Zm37.82-.8c-1.96.46-4.25.66-6.87.66-.94 0-1.92-.06-2.91-.16v.99c2.27 0 3.01 1.33 3.01 4.15v12.35c0 3.1-2.07 5.44-4.57 5.44-2.34 0-2.8-1.61-2.8-3.95v-19.48c-1.97.46-4.25.66-6.86.66-.94 0-1.93-.06-2.92-.16v.99c2.27 0 3.01 1.33 3.01 4.15v11.92c0 3.09.39 4.91 1.42 6.08.99 1.1 2.55 1.86 5.14 1.86 3.24 0 6.04-1.24 7.58-4.39v4.25c1.95-.46 4.24-.64 6.86-.64.94 0 1.93.04 2.91.13v-.98c-2.27 0-3-1.33-3-4.13Zm21.2-.14c-2.96 0-5.23 2-6.36 4.52v-4.38c-1.97.46-4.24.66-6.86.66-.94 0-1.93-.06-2.91-.16v.99c2.27 0 3 1.33 3 4.15v14.83c0 2.62-.82 3.37-3 3.37v.99c1.28-.05 4.15-.18 6.72-.18 2.96 0 6.01.13 7.46.18v-.99c-2.96 0-4.41-.82-4.41-3.85v-12.44c0-2.53 1.77-5.65 4.27-6.06.23-.07.46-.11.67-.11.23 0 .43.04.62.11-1.17.78-2.07 1.91-2.07 3.63 0 1.83 1.31 3.03 3.51 3.03 2.21 0 3.65-1.63 3.65-3.95 0-2.11-1.24-4.34-4.29-4.34Zm17.33 0c-6.66 0-11.61 4.45-11.61 12.94 0 8.82 4.81 12.7 10.94 12.7 5.37 0 8.26-3.91 9.34-7.42l-.82-.3c-1.91 3.15-4.41 3.84-6.15 3.84-3.1 0-6.22-2.18-6.22-9.48 0-6.38 2.04-11.13 5.94-11.13 1.24 0 2.34.48 2.82 1.12-1.67.46-3.1 1.89-3.1 3.86 0 2.11 1.4 3.49 3.63 3.49 2.16 0 3.72-1.56 3.72-3.79 0-1.86-1.01-3.42-2.59-4.38-1.36-.85-3.47-1.45-5.9-1.45Zm24.94 21.76c-2.98 0-6.12-2.55-6.12-9.09 0-.76.02-1.54.09-2.23h13.15c0-7.36-3.35-10.44-8.84-10.44-6.68 0-11.5 4.34-11.5 13.06 0 8.58 4.5 12.58 10.84 12.58 5.21 0 8.28-3.79 9.41-7.33l-.85-.32c-1.91 3.12-4.3 3.77-6.18 3.77Zm-1.99-20.75c2.29 0 3.28 3.95 3.19 8.54h-7.37c.39-6.08 2.07-8.54 4.18-8.54Zm54.27-9.32c-.99.1-2.61.14-4.08.14-1.7 0-3.88-.04-5.1-.14v.94c4.16.42 4.57 1.61 4.57 6.77v14.72l-18.18-22.43c-1.1.1-2.57.14-4.06.14-1.47 0-3.1-.04-4.08-.14v.94c2.98.14 3.53.62 3.53 4.04v21.16c0 4.55-.53 5.79-3.53 6.2v.94c.98-.09 2.61-.14 4.08-.14 1.7 0 3.88.05 5.1.14v-.94c-4.16-.41-4.57-1.61-4.57-6.77v-18.04l20.38 25.84c.46-.02.87-.02 1.28-.02.39 0 .78 0 1.13.02v-26.23c0-4.54.53-5.78 3.53-6.2Zm13.68 8.31c-6.75 0-11.5 3.54-11.5 12.83 0 9.32 4.75 12.81 11.5 12.81 6.77 0 11.52-3.49 11.52-12.81 0-9.29-4.75-12.83-11.52-12.83Zm0 .94c2.57 0 4.43 3.49 4.43 11.89 0 8.42-1.86 11.86-4.43 11.86-2.55 0-4.41-3.44-4.41-11.86 0-8.4 1.86-11.89 4.41-11.89Zm23.96-.25v-7.73c-1.95 1.05-4.13 1.49-6.77 1.51v6.22h-3.95v.94h3.95v15.86c0 3.28.34 5.19 1.7 6.56 1.05 1.06 2.59 1.59 4.7 1.59 3.47 0 5.39-2.02 6.43-4.82l-.78-.44c-.92 2.09-2.07 2.82-3.22 2.82-1.37 0-2.06-.69-2.06-2.61v-18.96h5.55v-.94Zm43.21-9c-2.89.14-6.95.14-9.82.14-3.14 0-10.19 0-15.31-.14v.94c2.96.14 3.51.62 3.51 4.04v23.32c0 3.42-.52 3.9-3.51 4.04v.94c2.04-.07 4.75-.14 7.46-.14 3.35 0 6.63.07 8.56.14v-1.03c-4.18-.05-5.03-.55-5.03-4.23v-10.8h1.66c3.76 0 5.23 2.91 5.73 6.19h1.08c-.25-3.58-.3-5.12-.3-6.68 0-.64-.02-1.3-.02-2.11 0-1.1.05-2.5.19-4.56h-1.11c-.48 2.54-1.81 6.21-5.57 6.21h-1.66v-11.84c0-2.93.51-3.35 3.24-3.35h1.56c4.38 0 6.84 2.34 8.08 9.64h1.08c-.09-.87-.14-2.18-.14-3.58s.09-4.29.32-7.14Zm13.22 8.31c-6.75 0-11.5 3.54-11.5 12.83 0 9.32 4.75 12.81 11.5 12.81 6.77 0 11.52-3.49 11.52-12.81 0-9.29-4.75-12.83-11.52-12.83Zm0 .94c2.57 0 4.43 3.49 4.43 11.89 0 8.42-1.86 11.86-4.43 11.86-2.55 0-4.41-3.44-4.41-11.86 0-8.4 1.86-11.89 4.41-11.89Zm37.82-.8c-1.95.46-4.24.66-6.86.66-.94 0-1.93-.06-2.92-.16v.99c2.28 0 3.01 1.33 3.01 4.15v12.35c0 3.1-2.06 5.44-4.57 5.44-2.34 0-2.8-1.61-2.8-3.95v-19.48c-1.97.46-4.24.66-6.86.66-.94 0-1.93-.06-2.91-.16v.99c2.27 0 3 1.33 3 4.15v11.92c0 3.09.39 4.91 1.43 6.08.98 1.1 2.54 1.86 5.14 1.86 3.23 0 6.03-1.24 7.57-4.39v4.25c1.95-.46 4.25-.64 6.86-.64.94 0 1.93.04 2.92.13v-.98c-2.27 0-3.01-1.33-3.01-4.13Zm22.51-.14c-3.3 0-6.1 1.19-7.66 4.38v-4.24c-1.97.46-4.25.66-6.86.66-.94 0-1.93-.06-2.92-.16v.99c2.27 0 3.01 1.33 3.01 4.15v14.83c0 2.62-.83 3.37-3.01 3.37v.99c1.24-.05 4.06-.18 6.47-.18 2.3 0 4.73.13 5.83.18v-.99c-1.86 0-2.52-.75-2.52-3.37v-13.1c0-3.1 2.02-5.44 4.66-5.44 2.34 0 2.89 1.58 2.89 3.92v14.62c0 2.62-.67 3.37-2.53 3.37v.99c1.15-.05 3.7-.18 6.11-.18 2.29 0 5 .13 6.2.18v-.99c-2.18 0-3.01-.75-3.01-3.37v-12.67c0-3.19-.44-4.91-1.47-6.1-.96-1.1-2.5-1.84-5.19-1.84Zm34.5-11.82c-1.95.46-4.23.64-6.87.64-.94 0-1.92-.04-2.91-.13v.98c2.27 0 3.01 1.34 3.01 4.16v7.94c-1.27-1.26-3.06-1.77-5.19-1.77-6.04 0-10.51 4.2-10.51 12.72 0 8.95 3.99 12.92 9.59 12.92 3.05 0 5.03-1.45 6.11-4.16v3.97c1.97-.46 4.24-.64 6.86-.64.94 0 1.93.05 2.91.14v-.99c-2.27 0-3-1.33-3-4.13Zm-10.93 35.41c-2.71 0-4.45-2.75-4.43-10.78-.02-7.76 1.93-11.45 5.17-11.45 1.33 0 2.57.48 3.42 1.58v16.71c-.44 2.47-2.23 3.94-4.16 3.94Zm-220.39 62.59c-.14-1.66-.18-3.4-.18-7.21h-.99c-.23 1.58-.55 2.11-3.14 2.11h-.39v-18.43h-.76l-17.54 22.29v.98h12.83v8.33h5.47v-8.3c2.13.02 4.15.09 4.7.23Zm-10.17-5.1h-8.51l8.51-10.92Zm27.01-18.43c-8.03 0-13.28 5.74-13.28 13.18 0 7.55 5.39 12.46 12.78 12.46 7.94 0 13.29-5.72 13.29-13.22 0-7.48-5.3-12.42-12.79-12.42Zm-.41.85c3.28 0 6.11 3.28 6.11 11.71 0 7.66-2.41 12.23-5.79 12.23-3.28 0-6.1-3.31-6.1-11.78 0-7.64 2.41-12.16 5.78-12.16Zm38.33 22.68c-.14-1.66-.19-3.4-.19-7.21h-.98c-.23 1.58-.55 2.11-3.15 2.11h-.39v-18.43h-.76l-17.53 22.29v.98h12.83v8.33h5.46v-8.3c2.14.02 4.16.09 4.71.23Zm-10.17-5.1h-8.51l8.51-10.92Z"/></svg>