<svg xmlns="http://www.w3.org/2000/svg" fill="none" viewBox="0 0 221 56" class="icon-ninetofive-mac"><title>9to5Mac Logo</title><path fill="#004A7C" d="m17.39 43.42 7.55-11.18a7 7 0 0 1-3.84 1c-5.78 0-10.1-5.58-10.1-11.1 0-2.85 1.2-5.74 3.1-7.77A10.45 10.45 0 0 1 21.97 11c6 0 10.8 5.14 10.8 11.05 0 4.23-1.9 6.73-4.1 10.06L21.1 43.4h-3.7Zm4.53-13.38c4.32.21 7.64-3.46 7.64-7.73 0-4.36-3.15-8.25-7.64-8.25a7.88 7.88 0 0 0-7.73 7.95c-.04 4.31 3.72 8.24 7.73 8.03M43.2 14.4h-7.33v-2.9h17.78v2.9H46.4v29h-3.2zm44 12.95c0 9.28-7.65 16.62-16.89 16.62-8.93 0-16.83-7.2-16.83-16.36A16.7 16.7 0 0 1 70.3 11c9.03 0 16.88 7.2 16.88 16.36Zm-3.2 0c0-7.38-6.35-13.3-13.64-13.3-7.6 0-13.69 6.05-13.69 13.56 0 7.38 6.43 13.3 13.69 13.3 7.5 0 13.64-6 13.64-13.56m11.9-15.83h14.42v2.89H98.5l-1.6 8.8c1.65-.94 3.5-1.5 5.4-1.5 6.05 0 10.67 5.18 10.67 11.09 0 6-4.58 11.18-10.7 11.18-6.05 0-10.54-4.7-10.97-10.58h3.2c.25 4.02 3.36 7.51 7.59 7.51 4.44 0 7.68-3.7 7.68-8.02 0-4.28-3.2-8.12-7.64-8.12-2.59 0-4.96 1.42-6.56 3.37l-2.55-.91 2.9-15.71ZM70.33 16.9v10.94zm0 12.12c.66 0 1.19-.53 1.19-1.18V16.9a1.18 1.18 0 0 0-2.37 0v10.94c0 .66.53 1.18 1.18 1.18m0-1.18h-7.55zm0 1.18a1.18 1.18 0 0 0 0-2.36h-7.55a1.18 1.18 0 0 0 0 2.36z"></path><path fill="#0095FF" d="M118.32 11.5h4.93l11.66 27.17 11.61-27.16h4.92v31.9h-3.2V15.06l-12 28.37h-2.72l-12-28.37v28.37h-3.2zm63.17 31.92h-3.06v-4.45h-.09c-1.73 3.33-5.35 5.01-9.07 5.01-3.54 0-7.38-1.55-10.4-5-.87-.96-2.33-3.94-2.33-7.52 0-3.24 1.33-6.13 3.4-8.3a12.3 12.3 0 0 1 9.25-3.88c3.71 0 7.47 1.64 9.15 5.01h.09v-4.5h3.06zm-21.76-11.7c0 5.18 4.49 9.2 9.54 9.2a9.33 9.33 0 0 0 9.16-9.16 9.2 9.2 0 0 0-9.24-9.41 9.4 9.4 0 0 0-9.46 9.37m50.7 4.79a12.41 12.41 0 0 1-11.5 7.47c-7.03 0-12.9-5.18-12.9-12.4 0-6.99 5.96-12.3 12.78-12.3 5 0 9.84 2.94 11.66 7.69h-3.59a9.47 9.47 0 0 0-8.03-4.62c-5.22 0-9.63 3.88-9.63 9.2 0 5.22 4.1 9.36 9.37 9.36 3.67 0 6.22-1.5 8.3-4.4h3.53Z"></path></svg>