<svg xmlns="http://www.w3.org/2000/svg" fill="none" viewBox="0 0 279 56" class="icon"><title>9to5Google Logo</title><path fill="#26651A" d="m17.28 41.9 7.43-11a6.9 6.9 0 0 1-3.78.98c-5.69 0-9.93-5.48-9.93-10.91 0-2.8 1.19-5.65 3.06-7.65a10.27 10.27 0 0 1 7.72-3.31c5.9 0 10.6 5.05 10.6 10.87 0 4.16-1.86 6.63-4.03 9.9L20.93 41.9zm4.46-13.16c4.24.21 7.5-3.4 7.5-7.6 0-4.3-3.1-8.12-7.5-8.12a7.75 7.75 0 0 0-7.6 7.82c-.04 4.25 3.65 8.11 7.6 7.9m20.91-15.38h-7.2v-2.84h17.47v2.84H45.8v28.55h-3.14V13.36ZM85.9 26.11c0 9.13-7.51 16.35-16.59 16.35-8.78 0-16.55-7.1-16.55-16.1 0-9.13 7.47-16.35 16.55-16.35 8.87 0 16.59 7.1 16.59 16.1m-3.14 0c0-7.27-6.24-13.09-13.4-13.09A13.35 13.35 0 0 0 55.9 26.36c0 7.26 6.32 13.08 13.45 13.08 7.39 0 13.41-5.9 13.41-13.33m11.71-15.6h14.18v2.85H97l-1.57 8.67a10.63 10.63 0 0 1 5.3-1.49c5.94 0 10.48 5.1 10.48 10.92 0 5.9-4.5 11-10.52 11-5.94 0-10.35-4.63-10.78-10.4h3.14c.26 3.94 3.31 7.38 7.47 7.38 4.37 0 7.55-3.65 7.55-7.9 0-4.2-3.14-7.98-7.5-7.98-2.55 0-4.89 1.4-6.46 3.31l-2.5-.9 2.84-15.45Zm-25.14 5.3v10.77zm0 11.93c.64 0 1.16-.52 1.16-1.16V15.81a1.16 1.16 0 1 0-2.32 0v10.77c0 .64.52 1.16 1.16 1.16m0-1.16H61.9zm0 1.16a1.16 1.16 0 0 0 0-2.32H61.9a1.16 1.16 0 0 0 0 2.32z"></path><path fill="#57E53B" d="M148.38 27.42c-.6 8.62-8.15 15.04-16.6 15.04-9.04 0-16.8-7.22-16.8-16.4 0-4.16 1.9-8.37 4.83-11.26a16.7 16.7 0 0 1 11.97-4.8c3.27 0 6.5.9 9.21 2.68 2.04 1.36 4.67 3.78 5.48 6.2h-3.57c-2.2-3.7-6.75-5.86-11.12-5.86-3.35 0-6.75 1.14-9.34 3.52-2.58 2.38-4.32 6-4.32 9.56 0 7.65 6.32 13.34 13.79 13.34 5.6 0 11.12-3.7 12.69-9.17h-17.53v-2.85h21.3Zm27.75 2.72c0 6.63-5.34 12.32-12.05 12.32-6.58 0-12.18-5.35-12.18-12.02a12.2 12.2 0 0 1 12.18-12.28c6.45 0 12.05 5.52 12.05 11.98m-21.1.3c0 4.97 4.08 9 9.05 9 5.18 0 8.91-4.25 8.91-9.3a8.4 8.4 0 0 0-2.71-6.42 9.15 9.15 0 0 0-6.2-2.55 9.1 9.1 0 0 0-9.04 9.27Zm48.14-.3c0 6.63-5.35 12.32-12.06 12.32-6.58 0-12.18-5.35-12.18-12.02a12.2 12.2 0 0 1 12.18-12.28c6.45 0 12.06 5.52 12.06 11.98m-21.1.3c0 4.97 4.08 9 9.04 9 5.18 0 8.92-4.25 8.92-9.3a8.4 8.4 0 0 0-2.72-6.42 9.14 9.14 0 0 0-6.2-2.55 9.1 9.1 0 0 0-9.04 9.27m48.77 8.15c0 3.62-.13 5.83-2.72 8.63-2.25 2.46-5.86 3.78-9.17 3.78-5.09 0-10.1-3.44-11.37-8.54h3.05c1.83 3.44 4.59 5.52 8.58 5.52 2.97 0 6.07-1.36 7.6-4.03 1.01-1.83 1.01-3.32 1.01-5.36v-1.27c-1.48 3.48-5.47 5.14-9.08 5.14a12.5 12.5 0 0 1-8.36-3.4 11.6 11.6 0 0 1-3.65-8.7c0-3.28 1.36-6.25 2.2-7.19 3.06-3.87 6.33-5.01 9.64-5.01 3.7 0 7.47 1.65 9.25 5.01v-4.5h3.02zm-20.97-8.54c0 5.14 3.6 9.4 8.91 9.4 2.47 0 4.63-.81 6.37-2.64a10 10 0 0 0 2.63-6.5c0-5.23-4.12-9.14-9.3-9.14-4.83 0-8.6 4.13-8.6 8.88Zm26.31-19.54h3.14v31.4h-3.14V10.5Zm10.74 20.9c.17 4.42 4.46 8.03 8.74 8.03 3.44 0 6.92-1.9 8.32-5.1h3.27a12.32 12.32 0 0 1-11.29 8.12c-6.8 0-12.18-5.35-12.18-12.15a12.05 12.05 0 0 1 21.43-7.65c2.17 2.68 2.63 5.4 2.72 8.75zm17.87-2.84a9.25 9.25 0 0 0-8.87-7.4 9.11 9.11 0 0 0-9 7.4z"></path></svg>